<svg aria-hidden="true" style="position: absolute; width: 0; height: 0; overflow: hidden;" version="1.1" xmlns="http://www.w3.org/2000/svg" xmlns:xlink="http://www.w3.org/1999/xlink">
<defs>
<symbol id="icon-stats-dots" viewBox="0 0 32 32">
<path fill="#fff" d="M4 28h28v4h-32v-32h4zM9 26c-1.657 0-3-1.343-3-3s1.343-3 3-3c0.088 0 0.176 0.005 0.262 0.012l3.225-5.375c-0.307-0.471-0.487-1.033-0.487-1.638 0-1.657 1.343-3 3-3s3 1.343 3 3c0 0.604-0.179 1.167-0.487 1.638l3.225 5.375c0.086-0.007 0.174-0.012 0.262-0.012 0.067 0 0.133 0.003 0.198 0.007l5.324-9.316c-0.329-0.482-0.522-1.064-0.522-1.691 0-1.657 1.343-3 3-3s3 1.343 3 3c0 1.657-1.343 3-3 3-0.067 0-0.133-0.003-0.198-0.007l-5.324 9.316c0.329 0.481 0.522 1.064 0.522 1.691 0 1.657-1.343 3-3 3s-3-1.343-3-3c0-0.604 0.179-1.167 0.487-1.638l-3.225-5.375c-0.086 0.007-0.174 0.012-0.262 0.012s-0.176-0.005-0.262-0.012l-3.225 5.375c0.307 0.471 0.487 1.033 0.487 1.637 0 1.657-1.343 3-3 3z"></path>
</symbol>
<symbol id="icon-linkedin" viewBox="0 0 32 32">
<path fill="#fff"  d="M31.992 32v-0.001h0.008v-11.736c0-5.741-1.236-10.164-7.948-10.164-3.227 0-5.392 1.771-6.276 3.449h-0.093v-2.913h-6.364v21.364h6.627v-10.579c0-2.785 0.528-5.479 3.977-5.479 3.399 0 3.449 3.179 3.449 5.657v10.401h6.62z"></path>
<path fill="#fff"  d="M0.528 10.636h6.635v21.364h-6.635v-21.364z"></path>
<path fill="#fff"  d="M3.843 0c-2.121 0-3.843 1.721-3.843 3.843s1.721 3.879 3.843 3.879c2.121 0 3.843-1.757 3.843-3.879-0.001-2.121-1.723-3.843-3.843-3.843v0z"></path>
</symbol>
<symbol id="icon-instagram" viewBox="0 0 32 32">
<path fill="#eeeded"  d="M31.969 9.408c-0.075-1.7-0.35-2.869-0.744-3.882-0.406-1.075-1.032-2.038-1.851-2.838-0.8-0.813-1.769-1.444-2.832-1.844-1.019-0.394-2.182-0.669-3.882-0.744-1.713-0.081-2.257-0.1-6.601-0.1s-4.888 0.019-6.595 0.094c-1.7 0.075-2.869 0.35-3.882 0.744-1.075 0.406-2.038 1.031-2.838 1.85-0.813 0.8-1.444 1.769-1.844 2.832-0.394 1.019-0.669 2.182-0.744 3.882-0.081 1.713-0.1 2.257-0.1 6.601s0.019 4.888 0.094 6.595c0.075 1.7 0.35 2.869 0.744 3.882 0.406 1.075 1.038 2.038 1.85 2.838 0.8 0.813 1.769 1.444 2.832 1.844 1.019 0.394 2.182 0.669 3.882 0.744 1.706 0.075 2.25 0.094 6.595 0.094s4.888-0.019 6.595-0.094c1.7-0.075 2.869-0.35 3.882-0.744 2.151-0.832 3.851-2.532 4.682-4.682 0.394-1.019 0.669-2.182 0.744-3.882 0.075-1.707 0.094-2.251 0.094-6.595s-0.006-4.888-0.081-6.595zM29.087 22.473c-0.069 1.563-0.331 2.407-0.55 2.969-0.538 1.394-1.644 2.5-3.038 3.038-0.563 0.219-1.413 0.481-2.969 0.55-1.688 0.075-2.194 0.094-6.464 0.094s-4.782-0.019-6.464-0.094c-1.563-0.069-2.407-0.331-2.969-0.55-0.694-0.256-1.325-0.663-1.838-1.194-0.531-0.519-0.938-1.144-1.194-1.838-0.219-0.563-0.481-1.413-0.55-2.969-0.075-1.688-0.094-2.194-0.094-6.464s0.019-4.782 0.094-6.464c0.069-1.563 0.331-2.407 0.55-2.969 0.256-0.694 0.663-1.325 1.2-1.838 0.519-0.531 1.144-0.938 1.838-1.194 0.563-0.219 1.413-0.481 2.969-0.55 1.688-0.075 2.194-0.094 6.464-0.094 4.276 0 4.782 0.019 6.464 0.094 1.563 0.069 2.407 0.331 2.969 0.55 0.694 0.256 1.325 0.662 1.838 1.194 0.531 0.519 0.938 1.144 1.194 1.838 0.219 0.563 0.481 1.413 0.55 2.969 0.075 1.688 0.094 2.194 0.094 6.464s-0.019 4.77-0.094 6.458z"></path>
<path fill="#eb1010"  d="M16.059 7.783c-4.538 0-8.22 3.682-8.22 8.22s3.682 8.22 8.22 8.22c4.538 0 8.22-3.682 8.22-8.22s-3.682-8.22-8.22-8.22zM16.059 21.335c-2.944 0-5.332-2.388-5.332-5.332s2.388-5.332 5.332-5.332c2.944 0 5.332 2.388 5.332 5.332s-2.388 5.332-5.332 5.332z"></path>
<path fill="#ef0808"  d="M26.524 7.458c0 1.060-0.859 1.919-1.919 1.919s-1.919-0.859-1.919-1.919c0-1.060 0.859-1.919 1.919-1.919s1.919 0.859 1.919 1.919z"></path>
</symbol>
<symbol id="icon-github" viewBox="0 0 32 32">
<path fill="#fff"  d="M16 0.395c-8.836 0-16 7.163-16 16 0 7.069 4.585 13.067 10.942 15.182 0.8 0.148 1.094-0.347 1.094-0.77 0-0.381-0.015-1.642-0.022-2.979-4.452 0.968-5.391-1.888-5.391-1.888-0.728-1.849-1.776-2.341-1.776-2.341-1.452-0.993 0.11-0.973 0.11-0.973 1.606 0.113 2.452 1.649 2.452 1.649 1.427 2.446 3.743 1.739 4.656 1.33 0.143-1.034 0.558-1.74 1.016-2.14-3.554-0.404-7.29-1.777-7.29-7.907 0-1.747 0.625-3.174 1.649-4.295-0.166-0.403-0.714-2.030 0.155-4.234 0 0 1.344-0.43 4.401 1.64 1.276-0.355 2.645-0.532 4.005-0.539 1.359 0.006 2.729 0.184 4.008 0.539 3.054-2.070 4.395-1.64 4.395-1.64 0.871 2.204 0.323 3.831 0.157 4.234 1.026 1.12 1.647 2.548 1.647 4.295 0 6.145-3.743 7.498-7.306 7.895 0.574 0.497 1.085 1.47 1.085 2.963 0 2.141-0.019 3.864-0.019 4.391 0 0.426 0.288 0.925 1.099 0.768 6.354-2.118 10.933-8.113 10.933-15.18 0-8.837-7.164-16-16-16z"></path>
</symbol>


<symbol
 id="icon-support" viewBox="0 0 512 512">
<path d="M256 48C141.1 48 48 141.1 48 256l0 40c0 13.3-10.7 24-24 24s-24-10.7-24-24l0-40C0 114.6 114.6 0 256 0S512 114.6 512 256l0 144.1c0 48.6-39.4 88-88.1 88L313.6 488c-8.3 14.3-23.8 24-41.6 24l-32 0c-26.5 0-48-21.5-48-48s21.5-48 48-48l32 0c17.8 0 33.3 9.7 41.6 24l110.4 .1c22.1 0 40-17.9 40-40L464 256c0-114.9-93.1-208-208-208zM144 208l16 0c17.7 0 32 14.3 32 32l0 112c0 17.7-14.3 32-32 32l-16 0c-35.3 0-64-28.7-64-64l0-48c0-35.3 28.7-64 64-64zm224 0c35.3 0 64 28.7 64 64l0 48c0 35.3-28.7 64-64 64l-16 0c-17.7 0-32-14.3-32-32l0-112c0-17.7 14.3-32 32-32l16 0z"/></symbo>
</symbol> 


<symbol fill="#e0dcdc" style="fill:currentcolor" id="icon-tool" viewBox="0 0 24 24">
<path d="M15.407 6.993l3.77-3.756c0.081-0.079 0.152-0.18 0.205-0.296 0.227-0.504 0.002-1.096-0.501-1.322-0.263-0.118-0.532-0.22-0.807-0.306-1.582-0.492-3.34-0.428-4.963 0.307-1.761 0.797-3.033 2.234-3.664 3.909-0.554 1.467-0.617 3.124-0.087 4.697l-6.447 6.447c-0.609 0.609-0.914 1.41-0.914 2.207s0.305 1.598 0.914 2.207 1.41 0.914 2.207 0.914 1.598-0.305 2.207-0.914l6.448-6.448c0.050 0.017 0.1 0.033 0.151 0.049 1.582 0.492 3.34 0.428 4.963-0.307 1.761-0.797 3.033-2.234 3.664-3.909s0.624-3.594-0.173-5.355c-0.045-0.103-0.114-0.205-0.204-0.295-0.391-0.391-1.024-0.391-1.414 0l-3.756 3.77zM13.986 5.6c-0.383 0.39-0.573 0.9-0.572 1.406 0.002 0.502 0.192 1.007 0.571 1.394l1.607 1.608c0.398 0.39 0.907 0.58 1.413 0.579 0.502-0.002 1.007-0.192 1.394-0.571l2.574-2.574c0.090 0.796-0.015 1.593-0.291 2.326-0.452 1.199-1.359 2.222-2.617 2.792-1.16 0.525-2.412 0.571-3.545 0.219-0.197-0.061-0.391-0.135-0.579-0.22-0.387-0.174-0.827-0.082-1.118 0.205l-6.91 6.91c-0.219 0.219-0.504 0.328-0.793 0.328s-0.574-0.109-0.793-0.328-0.328-0.504-0.328-0.793 0.109-0.574 0.328-0.793l6.91-6.91c0.301-0.301 0.37-0.746 0.204-1.119-0.569-1.258-0.575-2.626-0.123-3.825s1.359-2.222 2.617-2.792c0.852-0.386 1.755-0.513 2.623-0.413z"></path>
</symbol>


      </defs>
</svg>